<?xml version="1.0" encoding="UTF-8"?>
<svg version="1.1" xmlns="http://www.w3.org/2000/svg" width="135" height="113">
<path d="M0 0 C0.66926514 0.11762695 1.33853027 0.23525391 2.02807617 0.35644531 C7.5196555 1.42617131 11.9745877 3.06474098 16.0625 6.9375 C19.42571039 9.17964026 20.93657835 8.64743009 24.75 7.91796875 C27.46229429 7.59533697 29.31541093 8.42732768 31.6875 9.6875 C32.05875 9.1925 32.43 8.6975 32.8125 8.1875 C34.6875 6.6875 34.6875 6.6875 37.6875 6.3125 C40.6875 6.6875 40.6875 6.6875 42.5 8 C46.18371782 13.23475691 45.16234233 20.62007017 44.6875 26.6875 C43.16209405 32.59015779 40.79260537 36.23810448 35.6875 39.6875 C35.1925 40.6775 35.1925 40.6775 34.6875 41.6875 C37.63477535 41.58580839 37.63477535 41.58580839 40.6875 40.6875 C42.14041273 38.22494315 42.14041273 38.22494315 42.6875 35.6875 C43.6775 35.6875 44.6675 35.6875 45.6875 35.6875 C45.6875 36.6775 45.6875 37.6675 45.6875 38.6875 C46.3475 38.6875 47.0075 38.6875 47.6875 38.6875 C47.3575 41.6575 47.0275 44.6275 46.6875 47.6875 C47.3475 47.6875 48.0075 47.6875 48.6875 47.6875 C49.1825 49.6675 49.1825 49.6675 49.6875 51.6875 C47.19685112 52.37457555 45.30863708 52.6875 42.6875 52.6875 C41.33960653 53.66778616 40.00537285 54.66721135 38.6875 55.6875 C38.0275 55.6875 37.3675 55.6875 36.6875 55.6875 C36.543125 56.96625 36.39875 58.245 36.25 59.5625 C35.98107254 61.94442894 35.76523654 63.53202691 34.6875 65.6875 C33.2025 65.1925 33.2025 65.1925 31.6875 64.6875 C31.6875 62.3775 31.6875 60.0675 31.6875 57.6875 C31.3575 58.0175 31.0275 58.3475 30.6875 58.6875 C27.75 58.875 27.75 58.875 24.6875 58.6875 C22.6875 56.6875 22.6875 56.6875 22.5625 54.0625 C22.60375 53.27875 22.645 52.495 22.6875 51.6875 C22.0275 51.6875 21.3675 51.6875 20.6875 51.6875 C20.6875 54.9875 20.6875 58.2875 20.6875 61.6875 C16.15329805 63.82865092 16.15329805 63.82865092 13.625 63.0625 C12.6659375 62.876875 12.6659375 62.876875 11.6875 62.6875 C11.06875 63.326875 10.45 63.96625 9.8125 64.625 C7.6875 66.6875 7.6875 66.6875 4.4375 66.9375 C3.53 66.855 2.6225 66.7725 1.6875 66.6875 C0.21873748 62.28121244 -0.72643552 59.18638575 0.6875 54.6875 C1.1825 53.6975 1.1825 53.6975 1.6875 52.6875 C1.20023437 52.31238281 0.71296875 51.93726563 0.2109375 51.55078125 C-2.44048545 48.30788702 -1.70665543 44.66707685 -1.609375 40.64453125 C-1.13971554 35.96647582 0.40324951 32.97175049 3.6875 29.6875 C5.0075 29.6875 6.3275 29.6875 7.6875 29.6875 C8.5625 32.1875 8.5625 32.1875 8.6875 35.6875 C7.27263562 37.9368802 5.6961938 39.86516125 3.9375 41.85546875 C3.525 42.46003906 3.1125 43.06460938 2.6875 43.6875 C3.0175 44.6775 3.3475 45.6675 3.6875 46.6875 C5.62824861 46.41132467 5.62824861 46.41132467 7.6875 45.6875 C10.24606962 41.84964558 10.82916858 38.16149126 11.80859375 33.6953125 C12.71294362 30.6004263 13.82791699 28.31362868 15.6875 25.6875 C17.49653101 24.99581167 18.77293991 24.6875 20.6875 24.6875 C20.50334568 21.74658413 20.50334568 21.74658413 19.6875 18.6875 C17.73728917 17.46222052 17.73728917 17.46222052 15.6875 16.6875 C15.1925 15.2025 15.1925 15.2025 14.6875 13.6875 C12.41516513 12.54953879 12.41516513 12.54953879 9.6875 11.6875 C8.7903125 11.34589844 7.893125 11.00429688 6.96875 10.65234375 C5.59203125 10.14380859 5.59203125 10.14380859 4.1875 9.625 C2.81078125 9.11259766 2.81078125 9.11259766 1.40625 8.58984375 C-7.45313222 5.64944534 -18.59923548 5.00856609 -27.3125 8.6875 C-28.33354551 9.66600195 -29.3331121 10.66730427 -30.3125 11.6875 C-33.60762097 13.21737759 -36.86701764 14.53900588 -40.3125 15.6875 C-40.8075 17.1725 -40.8075 17.1725 -41.3125 18.6875 C-41.9725 18.6875 -42.6325 18.6875 -43.3125 18.6875 C-43.9725 20.0075 -44.6325 21.3275 -45.3125 22.6875 C-45.9725 22.6875 -46.6325 22.6875 -47.3125 22.6875 C-47.60125 23.47125 -47.89 24.255 -48.1875 25.0625 C-49.3125 27.6875 -49.3125 27.6875 -51.3125 29.6875 C-50.69761719 29.85765625 -50.08273438 30.0278125 -49.44921875 30.203125 C-42.98448133 32.14151517 -42.98448133 32.14151517 -40.3125 34.3125 C-37.96738128 39.88215697 -37.63281315 44.8384782 -39.875 50.5 C-41.9678075 54.58561737 -44.02520225 56.79119523 -48.3125 58.6875 C-51.23084293 59.16373813 -53.29957198 59.03324584 -56.3125 58.6875 C-58.03515625 57.4453125 -58.03515625 57.4453125 -59.3125 55.6875 C-59.640625 53.49609375 -59.640625 53.49609375 -59.5625 51.125 C-59.54703125 50.33996094 -59.5315625 49.55492187 -59.515625 48.74609375 C-59.3125 46.6875 -59.3125 46.6875 -58.3125 44.6875 C-57.3225 44.6875 -56.3325 44.6875 -55.3125 44.6875 C-55.39628906 45.32558594 -55.48007812 45.96367188 -55.56640625 46.62109375 C-55.66824219 47.44738281 -55.77007812 48.27367187 -55.875 49.125 C-55.97941406 49.94871094 -56.08382812 50.77242187 -56.19140625 51.62109375 C-56.23136719 52.30300781 -56.27132812 52.98492187 -56.3125 53.6875 C-55.21326459 54.99496709 -55.21326459 54.99496709 -52.5 55 C-49.27302423 54.96204159 -49.27302423 54.96204159 -47.0625 53 C-43.79301109 48.67960395 -42.85213345 45.09680698 -43.3125 39.6875 C-43.70510542 37.31795713 -43.70510542 37.31795713 -45.3125 35.6875 C-49.25769608 34.54946267 -51.55833227 34.41599962 -55.4375 35.8125 C-63.46454945 41.04753225 -67.63030732 48.73004033 -70.20703125 57.85546875 C-71.66796966 65.29211652 -71.61577636 72.1060185 -67.3125 78.6875 C-63.25071288 81.39535808 -60.08172854 81.33027456 -55.3125 80.6875 C-47.74919048 77.95999072 -44.35084833 72.1365248 -41.046875 65.26171875 C-40.80453125 64.74222656 -40.5621875 64.22273438 -40.3125 63.6875 C-39.6525 63.6875 -38.9925 63.6875 -38.3125 63.6875 C-38.46194741 70.71152808 -41.81153912 74.50493147 -46.3125 79.6875 C-45.23128976 80.82318746 -45.23128976 80.82318746 -43.4296875 82.03515625 C-37.46018624 86.60068073 -37.46018624 86.60068073 -37.0078125 89.9296875 C-37.3125 92.125 -37.3125 92.125 -38.3125 95.6875 C-39.6325 95.3575 -40.9525 95.0275 -42.3125 94.6875 C-42.3125 94.0275 -42.3125 93.3675 -42.3125 92.6875 C-44.06771948 90.95056842 -44.06771948 90.95056842 -46.25 89.1875 C-50.21129154 85.88991692 -50.21129154 85.88991692 -51.3125 83.6875 C-52.1375 84.1825 -52.9625 84.6775 -53.8125 85.1875 C-57.91175298 86.94432271 -60.9267622 87.45061838 -65.3125 86.6875 C-70.05857588 84.49700344 -72.49154039 81.75921509 -74.5546875 77.078125 C-77.94469481 66.38387512 -76.10308802 55.7225064 -71.0625 45.875 C-68.47986902 41.57323168 -65.27246652 37.78964002 -61.3125 34.6875 C-60.6525 34.6875 -59.9925 34.6875 -59.3125 34.6875 C-59.17134766 33.64529297 -59.17134766 33.64529297 -59.02734375 32.58203125 C-58.16587117 29.09377344 -56.69275113 26.47008977 -54.875 23.375 C-54.25753906 22.30636719 -53.64007813 21.23773437 -53.00390625 20.13671875 C-52.44574219 19.32847656 -51.88757813 18.52023438 -51.3125 17.6875 C-50.6525 17.6875 -49.9925 17.6875 -49.3125 17.6875 C-49.3125 16.6975 -49.3125 15.7075 -49.3125 14.6875 C-48.6525 14.6875 -47.9925 14.6875 -47.3125 14.6875 C-47.065 14.06875 -46.8175 13.45 -46.5625 12.8125 C-45.06247691 10.26246075 -43.9427751 9.92527652 -41.3125 8.6875 C-40.69375 8.0275 -40.075 7.3675 -39.4375 6.6875 C-36.81504862 4.21931047 -34.77344928 3.66701395 -31.3125 2.6875 C-29.7478699 2.17310106 -28.1854616 1.65190911 -26.625 1.125 C-17.38827013 -1.95390996 -9.54502891 -1.73125481 0 0 Z M25.6875 25.6875 C26.6875 28.6875 26.6875 28.6875 26.6875 28.6875 Z M21.6875 27.6875 C21.275 28.780625 20.8625 29.87375 20.4375 31 C19.08464409 34.19765942 17.74694156 35.89403426 14.6875 37.6875 C15.80604586 41.41364153 15.80604586 41.41364153 18.6875 43.6875 C20.39590281 42.05337557 21.62203047 40.81843906 22.6875 38.6875 C22.5225 39.43 22.3575 40.1725 22.1875 40.9375 C21.56824304 43.87756578 21.56824304 43.87756578 21.6875 47.6875 C22.203125 47.336875 22.71875 46.98625 23.25 46.625 C26.62756667 45.3259359 29.19218057 46.01532319 32.6875 46.6875 C33.68967064 43.10422247 33.68967064 43.10422247 32.6875 39.6875 C32.0275 39.6875 31.3675 39.6875 30.6875 39.6875 C30.6875 39.0275 30.6875 38.3675 30.6875 37.6875 C29.0438186 35.99816078 27.3732124 34.33490076 25.6875 32.6875 C24.33194707 31.03885455 22.99118347 29.37746005 21.6875 27.6875 Z M15.6875 29.6875 C15.3575 31.3375 15.0275 32.9875 14.6875 34.6875 C16.22916642 33.31264468 16.22916642 33.31264468 17.6875 31.6875 C17.6875 31.0275 17.6875 30.3675 17.6875 29.6875 C17.0275 29.6875 16.3675 29.6875 15.6875 29.6875 Z M3.6875 33.6875 C3.0275 35.6675 2.3675 37.6475 1.6875 39.6875 C2.6775 38.6975 3.6675 37.7075 4.6875 36.6875 C4.3575 35.6975 4.0275 34.7075 3.6875 33.6875 Z M10.6875 42.6875 C10.3575 44.3375 10.0275 45.9875 9.6875 47.6875 C10.6775 47.3575 11.6675 47.0275 12.6875 46.6875 C12.0275 45.3675 11.3675 44.0475 10.6875 42.6875 Z M41.6875 43.6875 C42.6875 45.6875 42.6875 45.6875 42.6875 45.6875 Z M13.6875 47.6875 C13.6875 48.3475 13.6875 49.0075 13.6875 49.6875 C15.3375 49.3575 16.9875 49.0275 18.6875 48.6875 C18.6875 48.3575 18.6875 48.0275 18.6875 47.6875 C17.0375 47.6875 15.3875 47.6875 13.6875 47.6875 Z M6.625 50.6875 C5.985625 51.3475 5.34625 52.0075 4.6875 52.6875 C6.0075 53.0175 7.3275 53.3475 8.6875 53.6875 C9.0175 52.0375 9.3475 50.3875 9.6875 48.6875 C8.32832319 48.57147569 8.32832319 48.57147569 6.625 50.6875 Z M37.6875 49.6875 C37.3575 50.3475 37.0275 51.0075 36.6875 51.6875 C37.3475 51.6875 38.0075 51.6875 38.6875 51.6875 C38.3575 51.0275 38.0275 50.3675 37.6875 49.6875 Z M14.6875 53.6875 C14.6875 55.6675 14.6875 57.6475 14.6875 59.6875 C15.3475 59.6875 16.0075 59.6875 16.6875 59.6875 C16.6875 58.0375 16.6875 56.3875 16.6875 54.6875 C16.0275 54.3575 15.3675 54.0275 14.6875 53.6875 Z M32.6875 53.6875 C32.6875 54.3475 32.6875 55.0075 32.6875 55.6875 C33.3475 55.6875 34.0075 55.6875 34.6875 55.6875 C35.0175 56.6775 35.3475 57.6675 35.6875 58.6875 C35.6875 57.3675 35.6875 56.0475 35.6875 54.6875 C34.6975 54.3575 33.7075 54.0275 32.6875 53.6875 Z M9.6875 54.6875 C9.3575 55.6775 9.0275 56.6675 8.6875 57.6875 C9.6775 58.1825 9.6775 58.1825 10.6875 58.6875 C10.3575 57.3675 10.0275 56.0475 9.6875 54.6875 Z M33.6875 58.6875 C34.6875 60.6875 34.6875 60.6875 34.6875 60.6875 Z " fill="#E8E8E8" transform="translate(80.3125,6.3125)"/>
<path d="M0 0 C0.66926514 0.11762695 1.33853027 0.23525391 2.02807617 0.35644531 C6.31866935 1.19222657 9.91902087 2.46974148 13.6875 4.6875 C14.1825 5.6775 14.1825 5.6775 14.6875 6.6875 C14.11902344 6.48253906 13.55054687 6.27757812 12.96484375 6.06640625 C5.84025358 3.58053088 -0.6554202 2.53561141 -8.19921875 2.75 C-10.3125 2.6875 -10.3125 2.6875 -12.34765625 2.12890625 C-15.56173199 1.40685743 -18.25283293 2.68722423 -21.3125 3.6875 C-20.6525 4.3475 -19.9925 5.0075 -19.3125 5.6875 C-19.91578125 5.94144531 -20.5190625 6.19539062 -21.140625 6.45703125 C-25.24012547 8.22246129 -28.78990461 9.91974648 -32.3125 12.6875 C-34.94946435 13.84519166 -37.5799597 14.77665323 -40.3125 15.6875 C-40.8075 17.1725 -40.8075 17.1725 -41.3125 18.6875 C-41.9725 18.6875 -42.6325 18.6875 -43.3125 18.6875 C-43.9725 20.0075 -44.6325 21.3275 -45.3125 22.6875 C-45.9725 22.6875 -46.6325 22.6875 -47.3125 22.6875 C-47.60125 23.47125 -47.89 24.255 -48.1875 25.0625 C-49.3125 27.6875 -49.3125 27.6875 -51.3125 29.6875 C-50.69761719 29.85765625 -50.08273438 30.0278125 -49.44921875 30.203125 C-42.98448133 32.14151517 -42.98448133 32.14151517 -40.3125 34.3125 C-37.96738128 39.88215697 -37.63281315 44.8384782 -39.875 50.5 C-41.9678075 54.58561737 -44.02520225 56.79119523 -48.3125 58.6875 C-51.23084293 59.16373813 -53.29957198 59.03324584 -56.3125 58.6875 C-58.03515625 57.4453125 -58.03515625 57.4453125 -59.3125 55.6875 C-59.640625 53.49609375 -59.640625 53.49609375 -59.5625 51.125 C-59.54703125 50.33996094 -59.5315625 49.55492187 -59.515625 48.74609375 C-59.3125 46.6875 -59.3125 46.6875 -58.3125 44.6875 C-57.3225 44.6875 -56.3325 44.6875 -55.3125 44.6875 C-55.39628906 45.32558594 -55.48007812 45.96367188 -55.56640625 46.62109375 C-55.66824219 47.44738281 -55.77007812 48.27367187 -55.875 49.125 C-55.97941406 49.94871094 -56.08382812 50.77242187 -56.19140625 51.62109375 C-56.23136719 52.30300781 -56.27132812 52.98492187 -56.3125 53.6875 C-55.21326459 54.99496709 -55.21326459 54.99496709 -52.5 55 C-49.27302423 54.96204159 -49.27302423 54.96204159 -47.0625 53 C-43.79301109 48.67960395 -42.85213345 45.09680698 -43.3125 39.6875 C-43.70510542 37.31795713 -43.70510542 37.31795713 -45.3125 35.6875 C-49.25769608 34.54946267 -51.55833227 34.41599962 -55.4375 35.8125 C-63.46454945 41.04753225 -67.63030732 48.73004033 -70.20703125 57.85546875 C-71.66796966 65.29211652 -71.61577636 72.1060185 -67.3125 78.6875 C-63.25071288 81.39535808 -60.08172854 81.33027456 -55.3125 80.6875 C-47.74919048 77.95999072 -44.35084833 72.1365248 -41.046875 65.26171875 C-40.80453125 64.74222656 -40.5621875 64.22273438 -40.3125 63.6875 C-39.6525 63.6875 -38.9925 63.6875 -38.3125 63.6875 C-38.46194741 70.71152808 -41.81153912 74.50493147 -46.3125 79.6875 C-45.23128976 80.82318746 -45.23128976 80.82318746 -43.4296875 82.03515625 C-37.46018624 86.60068073 -37.46018624 86.60068073 -37.0078125 89.9296875 C-37.3125 92.125 -37.3125 92.125 -38.3125 95.6875 C-39.6325 95.3575 -40.9525 95.0275 -42.3125 94.6875 C-42.3125 94.0275 -42.3125 93.3675 -42.3125 92.6875 C-44.06771948 90.95056842 -44.06771948 90.95056842 -46.25 89.1875 C-50.21129154 85.88991692 -50.21129154 85.88991692 -51.3125 83.6875 C-52.1375 84.1825 -52.9625 84.6775 -53.8125 85.1875 C-57.91175298 86.94432271 -60.9267622 87.45061838 -65.3125 86.6875 C-70.05857588 84.49700344 -72.49154039 81.75921509 -74.5546875 77.078125 C-77.94469481 66.38387512 -76.10308802 55.7225064 -71.0625 45.875 C-68.47986902 41.57323168 -65.27246652 37.78964002 -61.3125 34.6875 C-60.6525 34.6875 -59.9925 34.6875 -59.3125 34.6875 C-59.17134766 33.64529297 -59.17134766 33.64529297 -59.02734375 32.58203125 C-58.16587117 29.09377344 -56.69275113 26.47008977 -54.875 23.375 C-54.25753906 22.30636719 -53.64007813 21.23773437 -53.00390625 20.13671875 C-52.44574219 19.32847656 -51.88757813 18.52023438 -51.3125 17.6875 C-50.6525 17.6875 -49.9925 17.6875 -49.3125 17.6875 C-49.3125 16.6975 -49.3125 15.7075 -49.3125 14.6875 C-48.6525 14.6875 -47.9925 14.6875 -47.3125 14.6875 C-47.065 14.06875 -46.8175 13.45 -46.5625 12.8125 C-45.06247691 10.26246075 -43.9427751 9.92527652 -41.3125 8.6875 C-40.69375 8.0275 -40.075 7.3675 -39.4375 6.6875 C-36.81504862 4.21931047 -34.77344928 3.66701395 -31.3125 2.6875 C-29.7478699 2.17310106 -28.1854616 1.65190911 -26.625 1.125 C-17.38827013 -1.95390996 -9.54502891 -1.73125481 0 0 Z " fill="#DDDBDE" transform="translate(80.3125,6.3125)"/>
<path d="M0 0 C1.32 0 2.64 0 4 0 C4.875 2.5 4.875 2.5 5 6 C3.58513562 8.2493802 2.0086938 10.17766125 0.25 12.16796875 C-0.1625 12.77253906 -0.575 13.37710938 -1 14 C-0.67 14.99 -0.34 15.98 0 17 C3.26954202 16.43628586 4.82575883 15.50037734 7 13 C7.12375 13.639375 7.2475 14.27875 7.375 14.9375 C7.58125 15.618125 7.7875 16.29875 8 17 C8.66 17.33 9.32 17.66 10 18 C10 18.66 10 19.32 10 20 C15.20404588 18.17768141 15.20404588 18.17768141 20.125 15.75 C22.91702975 14.6331881 25.13450003 15.34875001 28 16 C28.33 14.02 28.66 12.04 29 10 C28.34 9.67 27.68 9.34 27 9 C28.65 9 30.3 9 32 9 C31.67 9.99 31.34 10.98 31 12 C33.94727535 11.89830839 33.94727535 11.89830839 37 11 C38.45291273 8.53744315 38.45291273 8.53744315 39 6 C39.99 6 40.98 6 42 6 C42 6.99 42 7.98 42 9 C42.66 9 43.32 9 44 9 C43.67 11.97 43.34 14.94 43 18 C43.66 18 44.32 18 45 18 C45.495 19.98 45.495 19.98 46 22 C43.50935112 22.68707555 41.62113708 23 39 23 C37.65210653 23.98028616 36.31787285 24.97971135 35 26 C34.34 26 33.68 26 33 26 C32.855625 27.27875 32.71125 28.5575 32.5625 29.875 C32.29357254 32.25692894 32.07773654 33.84452691 31 36 C30.01 35.67 29.02 35.34 28 35 C28 32.69 28 30.38 28 28 C27.505 28.495 27.505 28.495 27 29 C24.0625 29.1875 24.0625 29.1875 21 29 C19 27 19 27 18.875 24.375 C18.91625 23.59125 18.9575 22.8075 19 22 C18.34 22 17.68 22 17 22 C17 25.3 17 28.6 17 32 C12.46579805 34.14115092 12.46579805 34.14115092 9.9375 33.375 C9.298125 33.25125 8.65875 33.1275 8 33 C7.38125 33.639375 6.7625 34.27875 6.125 34.9375 C4 37 4 37 0.75 37.25 C-0.1575 37.1675 -1.065 37.085 -2 37 C-3.46876252 32.59371244 -4.41393552 29.49888575 -3 25 C-2.67 24.34 -2.34 23.68 -2 23 C-2.48726563 22.62488281 -2.97453125 22.24976562 -3.4765625 21.86328125 C-6.12798545 18.62038702 -5.39415543 14.97957685 -5.296875 10.95703125 C-4.82721554 6.27897582 -3.28425049 3.28425049 0 0 Z M0 4 C-0.66 5.98 -1.32 7.96 -2 10 C-1.01 9.01 -0.02 8.02 1 7 C0.67 6.01 0.34 5.02 0 4 Z M38 14 C39 16 39 16 39 16 Z M2.9375 21 C2.298125 21.66 1.65875 22.32 1 23 C2.32 23.33 3.64 23.66 5 24 C5.33 22.35 5.66 20.7 6 19 C4.64082319 18.88397569 4.64082319 18.88397569 2.9375 21 Z M34 20 C33.67 20.66 33.34 21.32 33 22 C33.66 22 34.32 22 35 22 C34.67 21.34 34.34 20.68 34 20 Z M11 24 C11 25.98 11 27.96 11 30 C11.66 30 12.32 30 13 30 C13 28.35 13 26.7 13 25 C12.34 24.67 11.68 24.34 11 24 Z M29 24 C29 24.66 29 25.32 29 26 C29.66 26 30.32 26 31 26 C31.33 26.99 31.66 27.98 32 29 C32 27.68 32 26.36 32 25 C31.01 24.67 30.02 24.34 29 24 Z M6 25 C5.67 25.99 5.34 26.98 5 28 C5.99 28.495 5.99 28.495 7 29 C6.67 27.68 6.34 26.36 6 25 Z M30 29 C31 31 31 31 31 31 Z " fill="#DEDFE1" transform="translate(84,36)"/>
<path d="M0 0 C2.475 0.495 2.475 0.495 5 1 C5 3.64 5 6.28 5 9 C4.01 8.67 3.02 8.34 2 8 C1.67 8 1.34 8 1 8 C1.18129815 11.43793339 1.18129815 11.43793339 2 15 C3.93597032 16.51294288 3.93597032 16.51294288 6 17 C5.50959229 17.38953857 5.01918457 17.77907715 4.51391602 18.18041992 C2.49192904 20.61065196 2.67954047 21.98496169 2.77734375 25.11328125 C2.80538086 26.6147168 2.80538086 26.6147168 2.83398438 28.14648438 C2.88522461 29.71366211 2.88522461 29.71366211 2.9375 31.3125 C3.31428364 44.16322726 3.31428364 44.16322726 1 49 C-1 50.4375 -1 50.4375 -3 51 C-3.66 50.67 -4.32 50.34 -5 50 C-5 48.68 -5 47.36 -5 46 C-3.68 46 -2.36 46 -1 46 C-0.71454572 37.86455314 -1.81603117 30.02350304 -3 22 C-4.65 22.66 -6.3 23.32 -8 24 C-7.98952637 24.70084717 -7.97905273 25.40169434 -7.96826172 26.1237793 C-7.92658332 29.31164945 -7.90063615 32.49946215 -7.875 35.6875 C-7.85824219 36.79029297 -7.84148438 37.89308594 -7.82421875 39.02929688 C-7.81777344 40.09599609 -7.81132813 41.16269531 -7.8046875 42.26171875 C-7.79421387 43.24100342 -7.78374023 44.22028809 -7.77294922 45.22924805 C-8.01805359 48.22031202 -8.60531983 50.34573267 -10 53 C-12.625 53.8125 -12.625 53.8125 -15 54 C-15.33 52.68 -15.66 51.36 -16 50 C-14.68 50 -13.36 50 -12 50 C-11.70400628 41.7943963 -12.56205146 34.07562173 -14 26 C-14.99 26 -15.98 26 -17 26 C-16.505 24.515 -16.505 24.515 -16 23 C-15.34 23 -14.68 23 -14 23 C-14.04125 21.865625 -14.0825 20.73125 -14.125 19.5625 C-14.13440936 14.2838511 -13.38010785 8.7602157 -11 4 C-9.35 4 -7.7 4 -6 4 C-6 6.97 -6 9.94 -6 13 C-6.66 13 -7.32 13 -8 13 C-8.33 12.34 -8.66 11.68 -9 11 C-9.26932521 15.65052872 -9.26932521 15.65052872 -8 20 C-6.35 19.67 -4.7 19.34 -3 19 C-3.03480469 18.38253906 -3.06960937 17.76507813 -3.10546875 17.12890625 C-3.30729726 10.81455703 -2.37209404 5.84551745 0 0 Z " fill="#DCDADA" transform="translate(71,24)"/>
<path d="M0 0 C2.8125 -0.3125 2.8125 -0.3125 6 0 C10.46769104 5.60549086 9.69271276 12.20087364 9 19 C7.67036419 23.68631443 5.85323866 27.87935239 2 31 C-2.36706908 31.38991688 -4.30513897 31.46324069 -8 29 C-10.60625183 22.83976839 -9.17686389 14.14090616 -7 8 C-6.34 7.67 -5.68 7.34 -5 7 C-5.33 9.31 -5.66 11.62 -6 14 C-5.75765625 13.37351562 -5.5153125 12.74703125 -5.265625 12.1015625 C-4.76289062 10.87566406 -4.76289062 10.87566406 -4.25 9.625 C-3.76273437 8.40683594 -3.76273437 8.40683594 -3.265625 7.1640625 C-1.80516056 4.66684861 -0.66130399 4.01755741 2 3 C2 2.34 2 1.68 2 1 C1.34 0.67 0.68 0.34 0 0 Z " fill="#F2F2F2" transform="translate(116,14)"/>
<path d="M0 0 C0.66926514 0.11762695 1.33853027 0.23525391 2.02807617 0.35644531 C6.31866935 1.19222657 9.91902087 2.46974148 13.6875 4.6875 C14.1825 5.6775 14.1825 5.6775 14.6875 6.6875 C14.11902344 6.48253906 13.55054687 6.27757812 12.96484375 6.06640625 C5.84025358 3.58053088 -0.6554202 2.53561141 -8.19921875 2.75 C-10.3125 2.6875 -10.3125 2.6875 -12.34765625 2.12890625 C-15.56173199 1.40685743 -18.25283293 2.68722423 -21.3125 3.6875 C-20.6525 4.3475 -19.9925 5.0075 -19.3125 5.6875 C-19.91578125 5.94144531 -20.5190625 6.19539062 -21.140625 6.45703125 C-25.24012547 8.22246129 -28.78990461 9.91974648 -32.3125 12.6875 C-34.94946435 13.84519166 -37.5799597 14.77665323 -40.3125 15.6875 C-40.6425 16.6775 -40.9725 17.6675 -41.3125 18.6875 C-41.9725 18.6875 -42.6325 18.6875 -43.3125 18.6875 C-43.9725 20.0075 -44.6325 21.3275 -45.3125 22.6875 C-46.6325 22.0275 -47.9525 21.3675 -49.3125 20.6875 C-48.9825 20.0275 -48.6525 19.3675 -48.3125 18.6875 C-48.9725 18.6875 -49.6325 18.6875 -50.3125 18.6875 C-50.3125 19.3475 -50.3125 20.0075 -50.3125 20.6875 C-50.9725 20.3575 -51.6325 20.0275 -52.3125 19.6875 C-51.9825 19.0275 -51.6525 18.3675 -51.3125 17.6875 C-50.6525 17.6875 -49.9925 17.6875 -49.3125 17.6875 C-49.3125 16.6975 -49.3125 15.7075 -49.3125 14.6875 C-48.6525 14.6875 -47.9925 14.6875 -47.3125 14.6875 C-47.065 14.06875 -46.8175 13.45 -46.5625 12.8125 C-45.06247691 10.26246075 -43.9427751 9.92527652 -41.3125 8.6875 C-40.384375 7.6975 -40.384375 7.6975 -39.4375 6.6875 C-36.81504862 4.21931047 -34.77344928 3.66701395 -31.3125 2.6875 C-29.7478699 2.17310106 -28.1854616 1.65190911 -26.625 1.125 C-17.38827013 -1.95390996 -9.54502891 -1.73125481 0 0 Z " fill="#CFCFCF" transform="translate(80.3125,6.3125)"/>
<path d="M0 0 C0.66 0 1.32 0 2 0 C2.66666667 1.33333333 3.33333333 2.66666667 4 4 C2.35 6.31 0.7 8.62 -1 11 C-0.38511719 11.17015625 0.22976562 11.3403125 0.86328125 11.515625 C7.32801867 13.45401517 7.32801867 13.45401517 10 15.625 C12.34511872 21.19465697 12.67968685 26.1509782 10.4375 31.8125 C8.3446925 35.89811737 6.28729775 38.10369523 2 40 C-0.91834293 40.47623813 -2.98707198 40.34574584 -6 40 C-7.72265625 38.7578125 -7.72265625 38.7578125 -9 37 C-9.328125 34.80859375 -9.328125 34.80859375 -9.25 32.4375 C-9.22679687 31.25994141 -9.22679687 31.25994141 -9.203125 30.05859375 C-9 28 -9 28 -8 26 C-7.01 26 -6.02 26 -5 26 C-5.08378906 26.63808594 -5.16757812 27.27617188 -5.25390625 27.93359375 C-5.35574219 28.75988281 -5.45757813 29.58617188 -5.5625 30.4375 C-5.66691406 31.26121094 -5.77132813 32.08492187 -5.87890625 32.93359375 C-5.93884766 33.95646484 -5.93884766 33.95646484 -6 35 C-4.90076459 36.30746709 -4.90076459 36.30746709 -2.1875 36.3125 C1.03947577 36.27454159 1.03947577 36.27454159 3.25 34.3125 C6.51948891 29.99210395 7.46036655 26.40930698 7 21 C6.60739458 18.63045713 6.60739458 18.63045713 5 17 C0.8515035 15.80331832 -1.30041622 15.70960673 -5.3125 17.375 C-6.199375 17.91125 -7.08625 18.4475 -8 19 C-8.66 19.33 -9.32 19.66 -10 20 C-10 19.34 -10 18.68 -10 18 C-10.66 17.67 -11.32 17.34 -12 17 C-11.01 16.67 -10.02 16.34 -9 16 C-8.88785156 15.27425781 -8.77570312 14.54851563 -8.66015625 13.80078125 C-7.97038613 10.87436007 -6.94489186 8.77712191 -5.4375 6.1875 C-4.98246094 5.39730469 -4.52742188 4.60710938 -4.05859375 3.79296875 C-3.70925781 3.20128906 -3.35992187 2.60960937 -3 2 C-2.01 2 -1.02 2 0 2 C0 1.34 0 0.68 0 0 Z " fill="#CCCBD0" transform="translate(30,25)"/>
<path d="M0 0 C0.99 0 1.98 0 3 0 C2.01750889 2.72074461 1.12120597 4.84737026 -0.6875 7.125 C-1.120625 7.74375 -1.55375 8.3625 -2 9 C-1.505 10.485 -1.505 10.485 -1 12 C-1.99 12.061875 -1.99 12.061875 -3 12.125 C-6.02077859 13.00606042 -7.28612333 13.8787342 -9.6875 15.8125 C-18.85407795 22.9042681 -28.81289426 23.94513643 -40 25 C-40 25.33 -40 25.66 -40 26 C-46.06738846 26.39569925 -51.34403994 25.25411205 -57 23 C-57.66 22.34 -58.32 21.68 -59 21 C-57 21 -55 21 -53 21 C-53 20.34 -53 19.68 -53 19 C-51.88625 19.165 -50.7725 19.33 -49.625 19.5 C-36.82169107 20.99707103 -25.54787944 18.89211977 -14 13 C-13.34 13 -12.68 13 -12 13 C-12 12.34 -12 11.68 -12 11 C-11.01 11 -10.02 11 -9 11 C-8.67 10.01 -8.34 9.02 -8 8 C-6.40625 6.46484375 -6.40625 6.46484375 -4.5 4.9375 C-1.81893599 2.82278233 -1.81893599 2.82278233 0 0 Z M-49 23 C-49 23.33 -49 23.66 -49 24 C-47.35 24 -45.7 24 -44 24 C-44 23.67 -44 23.34 -44 23 C-45.65 23 -47.3 23 -49 23 Z " fill="#B8B8B8" transform="translate(106,82)"/>
<path d="M0 0 C0.99 0 1.98 0 3 0 C3 0.99 3 1.98 3 3 C3.66 3 4.32 3 5 3 C4.67 5.97 4.34 8.94 4 12 C4.66 12 5.32 12 6 12 C6.33 13.32 6.66 14.64 7 16 C4.50935112 16.68707555 2.62113708 17 0 17 C-1.34789347 17.98028616 -2.68212715 18.97971135 -4 20 C-4.66 20 -5.32 20 -6 20 C-6.144375 21.27875 -6.28875 22.5575 -6.4375 23.875 C-6.70642746 26.25692894 -6.92226346 27.84452691 -8 30 C-8.99 29.67 -9.98 29.34 -11 29 C-11 25.37 -11 21.74 -11 18 C-11.66 18 -12.32 18 -13 18 C-13 17.34 -13 16.68 -13 16 C-12.34 16 -11.68 16 -11 16 C-11.20625 15.0925 -11.4125 14.185 -11.625 13.25 C-12.02065633 9.82097846 -11.72845365 8.84686483 -10 6 C-10 5.34 -10 4.68 -10 4 C-10.66 3.67 -11.32 3.34 -12 3 C-10.35 3 -8.7 3 -7 3 C-7.33 3.99 -7.66 4.98 -8 6 C-5.05272465 5.89830839 -5.05272465 5.89830839 -2 5 C-0.54708727 2.53744315 -0.54708727 2.53744315 0 0 Z M-1 8 C0 10 0 10 0 10 Z M-5 14 C-5.33 14.66 -5.66 15.32 -6 16 C-5.34 16 -4.68 16 -4 16 C-4.33 15.34 -4.66 14.68 -5 14 Z M-10 18 C-10 18.66 -10 19.32 -10 20 C-9.34 20 -8.68 20 -8 20 C-7.67 20.99 -7.34 21.98 -7 23 C-7 21.68 -7 20.36 -7 19 C-7.99 18.67 -8.98 18.34 -10 18 Z M-9 23 C-8 25 -8 25 -8 25 Z " fill="#D7D5D7" transform="translate(123,42)"/>
<path d="M0 0 C1.95931057 -0.05582081 3.91783767 -0.14262451 5.875 -0.25 C14.37017393 -0.3363916 21.97428749 2.23626939 29.38671875 6.3125 C31 8 31 8 31.390625 10.69921875 C31.34421875 11.68535156 31.2978125 12.67148437 31.25 13.6875 C31.21390625 14.68136719 31.1778125 15.67523437 31.140625 16.69921875 C31.09421875 17.45847656 31.0478125 18.21773437 31 19 C30.505 18.01 30.505 18.01 30 17 C29.34 16.690625 28.68 16.38125 28 16.0625 C26 15 26 15 25 12 C22.68972296 10.86912187 22.68972296 10.86912187 20 10 C19.25363281 9.67 18.50726563 9.34 17.73828125 9 C10.92285635 6.19042065 4.39418163 5.26641471 -2.89331055 4.68359375 C-6.66776067 4.36433937 -8.78794279 4.14137147 -12 2 C-10.75579353 1.4654744 -9.50429064 0.94791389 -8.25 0.4375 C-7.55390625 0.14746094 -6.8578125 -0.14257812 -6.140625 -0.44140625 C-3.62647835 -1.09747007 -2.47673232 -0.67672798 0 0 Z " fill="#DADADA" transform="translate(70,8)"/>
<path d="M0 0 C1.4540625 0.0309375 1.4540625 0.0309375 2.9375 0.0625 C5.58419599 4.6388588 5.46777195 8.89846701 4.9375 14.0625 C3.45028782 18.1523335 1.91050153 21.07599923 -2.0625 23.0625 C-4.75 22.875 -4.75 22.875 -7.0625 22.0625 C-9.03909482 18.10931036 -8.5024455 13.36933492 -8.0625 9.0625 C-4.94294751 0.10087648 -4.94294751 0.10087648 0 0 Z M-3.0625 4.0625 C-4.78345223 5.78345223 -4.23449761 8.03413914 -4.25 10.375 C-4.26417969 11.34050781 -4.27835938 12.30601563 -4.29296875 13.30078125 C-4.06123224 16.07769158 -3.48390844 17.69723141 -2.0625 20.0625 C-0.05346187 18.40768701 0.86058006 17.55973244 1.265625 14.94140625 C1.23984375 14.17699219 1.2140625 13.41257812 1.1875 12.625 C1.17203125 11.86316406 1.1565625 11.10132813 1.140625 10.31640625 C0.94415883 8.13638739 0.53155998 6.16566396 -0.0625 4.0625 C-1.0525 4.0625 -2.0425 4.0625 -3.0625 4.0625 Z " fill="#DCD9DA" transform="translate(50.0625,48.9375)"/>
<path d="M0 0 C1.33333333 2 2.66666667 4 4 6 C4.99 6.33 5.98 6.66 7 7 C6.50959229 7.38953857 6.01918457 7.77907715 5.51391602 8.18041992 C3.49192904 10.61065196 3.67954047 11.98496169 3.77734375 15.11328125 C3.79603516 16.11423828 3.81472656 17.11519531 3.83398438 18.14648438 C3.88522461 19.71366211 3.88522461 19.71366211 3.9375 21.3125 C4.31428364 34.16322726 4.31428364 34.16322726 2 39 C0 40.4375 0 40.4375 -2 41 C-2.66 40.67 -3.32 40.34 -4 40 C-4 38.68 -4 37.36 -4 36 C-2.68 36 -1.36 36 0 36 C0.02777514 34.66679321 0.04673341 33.33340287 0.0625 32 C0.07990234 30.88625 0.07990234 30.88625 0.09765625 29.75 C0.03836843 26.82906989 0.03836843 26.82906989 -0.49609375 23.27734375 C-1.10121873 18.69775792 -1.14767204 14.17626057 -1.125 9.5625 C-1.12886719 8.74845703 -1.13273437 7.93441406 -1.13671875 7.09570312 C-1.12676222 1.12676222 -1.12676222 1.12676222 0 0 Z " fill="#E4E2E3" transform="translate(70,34)"/>
<path d="M0 0 C2.625 0.9375 2.625 0.9375 5 2 C3.74809374 6.48599743 2.20614467 9.59347128 -1 13 C-1.66 13 -2.32 13 -3 13 C-1.71711243 15.55503957 -1.71711243 15.55503957 0 18 C0.99 18 1.98 18 3 18 C3.66 16.35 4.32 14.7 5 13 C6.12587689 15.76351601 6.05900595 16.8414215 5 19.6875 C3 22 3 22 -0.6875 22.8125 C-1.780625 22.874375 -2.87375 22.93625 -4 23 C-6.74315933 19.7082088 -7.22839572 17.27342598 -6.9375 13.125 C-6.28118607 8.2463998 -4.81913689 5.01513436 -2 1 C-1.34 0.67 -0.68 0.34 0 0 Z M-2 5 C-2.33 6.65 -2.66 8.3 -3 10 C-1.45833358 8.62514468 -1.45833358 8.62514468 0 7 C0 6.34 0 5.68 0 5 C-0.66 5 -1.32 5 -2 5 Z " fill="#CFCFD4" transform="translate(98,31)"/>
<path d="M0 0 C0.33 1.98 0.66 3.96 1 6 C0.01 6.495 0.01 6.495 -1 7 C-0.34 7.33 0.32 7.66 1 8 C0.67 9.65 0.34 11.3 0 13 C-2.875 13.125 -2.875 13.125 -6 13 C-8 11 -8 11 -8.125 8.375 C-8.08375 7.59125 -8.0425 6.8075 -8 6 C-8.99 6.495 -8.99 6.495 -10 7 C-10.46523063 8.89533342 -10.46523063 8.89533342 -10.625 11.0625 C-10.74875 12.361875 -10.8725 13.66125 -11 15 C-11.66 15 -12.32 15 -13 15 C-14.7263731 11.5472538 -14.62319581 7.76687242 -14 4 C-11.75 2.0625 -11.75 2.0625 -9 1 C-8.01 0.38125 -8.01 0.38125 -7 -0.25 C-4.36529649 -1.23801382 -2.66584832 -0.74051342 0 0 Z " fill="#CECACB" transform="translate(111,52)"/>
<path d="M0 0 C0.28875 0.639375 0.5775 1.27875 0.875 1.9375 C1.82823451 4.15206079 1.82823451 4.15206079 4 5 C4 5.66 4 6.32 4 7 C5.32 6.67 6.64 6.34 8 6 C7.67 7.98 7.34 9.96 7 12 C6.67 12 6.34 12 6 12 C5.67 13.65 5.34 15.3 5 17 C5.99 16.67 6.98 16.34 8 16 C8 16.66 8 17.32 8 18 C8.66 18 9.32 18 10 18 C10 15.36 10 12.72 10 10 C10.33 10 10.66 10 11 10 C11 12.97 11 15.94 11 19 C7.47873697 20.66281865 5.71030749 21.15147474 2 20 C1.34 20.33 0.68 20.66 0 21 C-1 15.125 -1 15.125 -1 14 C-1.33 13.01 -1.66 12.02 -2 11 C-1.5625 8.8125 -1.5625 8.8125 -1 7 C-3.97 6.505 -3.97 6.505 -7 6 C-6.67 5.34 -6.34 4.68 -6 4 C-5.360625 3.855625 -4.72125 3.71125 -4.0625 3.5625 C-1.61789145 3.13834965 -1.61789145 3.13834965 0 0 Z " fill="#BFBBBD" transform="translate(90,49)"/>
<path d="M0 0 C1.670625 0.2475 1.670625 0.2475 3.375 0.5 C11.9701965 1.55740554 20.41795721 0.91367756 29 0 C29 1.32 29 2.64 29 4 C23.72 4.66 18.44 5.32 13 6 C13 6.33 13 6.66 13 7 C6.93261154 7.39569925 1.65596006 6.25411205 -4 4 C-4.66 3.34 -5.32 2.68 -6 2 C-4 2 -2 2 0 2 C0 1.34 0 0.68 0 0 Z M4 4 C4 4.33 4 4.66 4 5 C5.65 5 7.3 5 9 5 C9 4.67 9 4.34 9 4 C7.35 4 5.7 4 4 4 Z " fill="#C7C7C7" transform="translate(53,101)"/>
<path d="M0 0 C0.33 1.65 0.66 3.3 1 5 C-4.60712235 7.32407888 -10.12269437 9.47190054 -16 11 C-16.763125 11.2475 -17.52625 11.495 -18.3125 11.75 C-19.1478125 11.87375 -19.1478125 11.87375 -20 12 C-20.66 11.34 -21.32 10.68 -22 10 C-21.625 7.375 -21.625 7.375 -21 5 C-19.68 5 -18.36 5 -17 5 C-17.33 5.66 -17.66 6.32 -18 7 C-18.66 6.67 -19.32 6.34 -20 6 C-20 7.32 -20 8.64 -20 10 C-19.01 10 -18.02 10 -17 10 C-16.34 8.02 -15.68 6.04 -15 4 C-14.34 4 -13.68 4 -13 4 C-12.67 3.01 -12.34 2.02 -12 1 C-11.443125 1.20625 -10.88625 1.4125 -10.3125 1.625 C-6.54972688 2.23517943 -3.82732594 0 0 0 Z M-15 6 C-15 6.66 -15 7.32 -15 8 C-14.34 8 -13.68 8 -13 8 C-13 7.34 -13 6.68 -13 6 C-13.66 6 -14.32 6 -15 6 Z " fill="#BBBBBB" transform="translate(114,73)"/>
<path d="M0 0 C0.99 0.33 1.98 0.66 3 1 C3.33 2.98 3.66 4.96 4 7 C3.01 7.268125 2.02 7.53625 1 7.8125 C-1.75496396 8.59168173 -4.39842918 9.51535078 -7.0625 10.5625 C-10.34700704 11.83020447 -13.49307373 12.56163422 -17 13 C-17 10.69 -17 8.38 -17 6 C-13.71303767 5.20046862 -12.28976808 4.90341064 -9 6 C-8.67 5.34 -8.34 4.68 -8 4 C-5.4375 3.375 -5.4375 3.375 -3 3 C-2.67 3.99 -2.34 4.98 -2 6 C-1.34 6 -0.68 6 0 6 C-0.185625 5.38125 -0.37125 4.7625 -0.5625 4.125 C-1 2 -1 2 0 0 Z M-7 6 C-7 6.66 -7 7.32 -7 8 C-6.34 8 -5.68 8 -5 8 C-5 7.34 -5 6.68 -5 6 C-5.66 6 -6.32 6 -7 6 Z M-11 8 C-10 10 -10 10 -10 10 Z " fill="#A7A7A7" transform="translate(87,80)"/>
<path d="M0 0 C2.76714046 2.37183468 4.68586992 4.08004763 5.875 7.5625 C5.99834361 9.96770035 5.75823817 11.7252855 5 14 C3.68 13.67 2.36 13.34 1 13 C1 12.34 1 11.68 1 11 C-1.00817747 9.18008917 -3.12186339 7.52894795 -5.25 5.8515625 C-7 4 -7 4 -7 0 C-3.98968256 -0.93423645 -3.13349732 -1.04449911 0 0 Z " fill="#A8A8A8" transform="translate(37,88)"/>
<path d="M0 0 C1.65 0.33 3.3 0.66 5 1 C5 3.64 5 6.28 5 9 C4.01 8.67 3.02 8.34 2 8 C1.67 8 1.34 8 1 8 C1 9.65 1 11.3 1 13 C0.34 12.34 -0.32 11.68 -1 11 C-1.33 14.3 -1.66 17.6 -2 21 C-4.31 21.99 -6.62 22.98 -9 24 C-9.33 22.02 -9.66 20.04 -10 18 C-9.34 18.66 -8.68 19.32 -8 20 C-5.39719432 19.67958603 -5.39719432 19.67958603 -3 19 C-3.03480469 18.38253906 -3.06960937 17.76507813 -3.10546875 17.12890625 C-3.30729726 10.81455703 -2.37209404 5.84551745 0 0 Z " fill="#C3BFC1" transform="translate(71,24)"/>
<path d="M0 0 C2.24907152 0.06790675 4.50001605 0.08499984 6.75 0.0625 C7.92046875 0.05347656 9.0909375 0.04445313 10.296875 0.03515625 C11.18890625 0.02355469 12.0809375 0.01195312 13 0 C13.33 1.65 13.66 3.3 14 5 C13.01 4.67 12.02 4.34 11 4 C11.33 3.01 11.66 2.02 12 1 C11.34 1 10.68 1 10 1 C9.67 2.32 9.34 3.64 9 5 C6.06167355 4.88618103 3.1248935 4.75943449 0.1875 4.625 C-1.06256836 4.57859375 -1.06256836 4.57859375 -2.33789062 4.53125 C-3.14033203 4.49257812 -3.94277344 4.45390625 -4.76953125 4.4140625 C-5.87711792 4.36693115 -5.87711792 4.36693115 -7.00708008 4.31884766 C-9 4 -9 4 -12 2 C-10.75579353 1.4654744 -9.50429064 0.94791389 -8.25 0.4375 C-7.55390625 0.14746094 -6.8578125 -0.14257812 -6.140625 -0.44140625 C-3.61099441 -1.10151058 -2.4964066 -0.68741631 0 0 Z " fill="#E6E6E6" transform="translate(70,8)"/>
<path d="M0 0 C0.66 0 1.32 0 2 0 C1.85204088 6.95407846 -1.28873181 11.03976235 -6 16 C-7.95183676 17.58692815 -9.79741914 18.76440586 -12 20 C-12 19.34 -12 18.68 -12 18 C-12.66 18.33 -13.32 18.66 -14 19 C-16.6723621 19.13415472 -19.32250488 19.04318541 -22 19 C-22 18.67 -22 18.34 -22 18 C-21.35933594 17.92523438 -20.71867187 17.85046875 -20.05859375 17.7734375 C-13.56403345 16.7861869 -9.16462 15.22163015 -5 10 C-3.0945486 6.75976538 -1.4809001 3.45315875 0 0 Z " fill="#CDCBCA" transform="translate(40,70)"/>
<path d="M0 0 C22.63969431 0.97122949 22.63969431 0.97122949 28.3359375 6.10546875 C29.15964844 7.04326172 29.15964844 7.04326172 30 8 C29.43152344 7.79503906 28.86304688 7.59007812 28.27734375 7.37890625 C21.15275358 4.89303088 14.6570798 3.84811141 7.11328125 4.0625 C5 4 5 4 2.99609375 3.47265625 C0.71936419 2.93354808 -0.94541205 3.09181181 -3.25 3.4375 C-4.4875 3.623125 -5.725 3.80875 -7 4 C-4 2 -4 2 0 2 C0 1.34 0 0.68 0 0 Z " fill="#BEBEBE" transform="translate(65,5)"/>
<path d="M0 0 C0.99 0 1.98 0 3 0 C3 0.99 3 1.98 3 3 C3.66 3 4.32 3 5 3 C4.67 5.97 4.34 8.94 4 12 C4.66 12 5.32 12 6 12 C6.33 13.32 6.66 14.64 7 16 C3.25 17.125 3.25 17.125 1 16 C0.74286225 14.00718243 0.49163848 12.01170139 0.34375 10.0078125 C0.08691645 7.69017751 0.08691645 7.69017751 -2 5 C-1.125 2.3125 -1.125 2.3125 0 0 Z " fill="#E5E2E4" transform="translate(123,42)"/>
<path d="M0 0 C0.99 0 1.98 0 3 0 C3.33 1.98 3.66 3.96 4 6 C3.01 6.495 3.01 6.495 2 7 C2.66 7.33 3.32 7.66 4 8 C3.67 9.65 3.34 11.3 3 13 C0.125 13.125 0.125 13.125 -3 13 C-3.66 12.34 -4.32 11.68 -5 11 C-4.625 7.375 -4.625 7.375 -4 4 C-3.67 4.66 -3.34 5.32 -3 6 C-2.01 5.67 -1.02 5.34 0 5 C0.33 4.01 0.66 3.02 1 2 C0.34 1.67 -0.32 1.34 -1 1 C-0.67 0.67 -0.34 0.34 0 0 Z " fill="#E6E5E8" transform="translate(108,52)"/>
<path d="M0 0 C0.66 0 1.32 0 2 0 C2.66666667 1.33333333 3.33333333 2.66666667 4 4 C-1.0940919 11.68490153 -1.0940919 11.68490153 -4.875 13 C-5.57625 13 -6.2775 13 -7 13 C-6.49516338 8.65840504 -5.68099266 5.50591348 -3 2 C-2.01 2 -1.02 2 0 2 C0 1.34 0 0.68 0 0 Z " fill="#E0E0E0" transform="translate(30,25)"/>
<path d="M0 0 C0.33 0 0.66 0 1 0 C1 2.64 1 5.28 1 8 C-1.66666667 8 -4.33333333 8 -7 8 C-7.33 8.66 -7.66 9.32 -8 10 C-9.32 9.67 -10.64 9.34 -12 9 C-12.33 7.02 -12.66 5.04 -13 3 C-12.113125 3.04125 -11.22625 3.0825 -10.3125 3.125 C-7.02722987 3.00102754 -4.94550705 2.38612096 -2 1 C-1.67 1.33 -1.34 1.66 -1 2 C-0.67 1.34 -0.34 0.68 0 0 Z M-11 4 C-10.67 5.32 -10.34 6.64 -10 8 C-9.67 7.01 -9.34 6.02 -9 5 C-9.66 4.67 -10.32 4.34 -11 4 Z M-6 4 C-6 4.66 -6 5.32 -6 6 C-5.34 6 -4.68 6 -4 6 C-4 5.34 -4 4.68 -4 4 C-4.66 4 -5.32 4 -6 4 Z " fill="#CCCCCC" transform="translate(66,89)"/>
<path d="M0 0 C0.66 0.33 1.32 0.66 2 1 C2 1.99 2 2.98 2 4 C2.639375 4.12375 3.27875 4.2475 3.9375 4.375 C4.618125 4.58125 5.29875 4.7875 6 5 C6.33 5.66 6.66 6.32 7 7 C2.545 8.485 2.545 8.485 -2 10 C-2 9.01 -2 8.02 -2 7 C-3.65 7.66 -5.3 8.32 -7 9 C-7.33 8.34 -7.66 7.68 -8 7 C-7.01 6.34 -6.02 5.68 -5 5 C-4.67 4.01 -4.34 3.02 -4 2 C-2.0625 0.75 -2.0625 0.75 0 0 Z " fill="#C1C1C1" transform="translate(45,10)"/>
<path d="M0 0 C0.33 0.66 0.66 1.32 1 2 C1.639375 1.814375 2.27875 1.62875 2.9375 1.4375 C7.07334611 0.84666484 10.8851173 1.41728241 15 2 C14.01 3.485 14.01 3.485 13 5 C10.66666667 5 8.33333333 5 6 5 C2.73249119 6.34126843 2.73249119 6.34126843 0 8 C-0.99 8.495 -0.99 8.495 -2 9 C-2 8.34 -2 7.68 -2 7 C-2.66 6.67 -3.32 6.34 -4 6 C-3.01 5.67 -2.02 5.34 -1 5 C-0.67 3.35 -0.34 1.7 0 0 Z " fill="#C0BEBF" transform="translate(22,36)"/>
<path d="M0 0 C0.66 0 1.32 0 2 0 C2.33 5.94 2.66 11.88 3 18 C2.01 17.67 1.02 17.34 0 17 C0 16.34 0 15.68 0 15 C-0.66 15 -1.32 15 -2 15 C-2.3690205 4.44191344 -2.3690205 4.44191344 0 0 Z " fill="#ECEAEB" transform="translate(44,53)"/>
<path d="M0 0 C0.66 0.33 1.32 0.66 2 1 C1.67 2.65 1.34 4.3 1 6 C0.67 6 0.34 6 0 6 C-0.33 7.65 -0.66 9.3 -1 11 C-0.01 10.67 0.98 10.34 2 10 C2 10.66 2 11.32 2 12 C2.66 12 3.32 12 4 12 C4 9.36 4 6.72 4 4 C4.33 4 4.66 4 5 4 C5 6.97 5 9.94 5 13 C1.47873697 14.66281865 -0.28969251 15.15147474 -4 14 C-4.99 14.495 -4.99 14.495 -6 15 C-6.33 13.02 -6.66 11.04 -7 9 C-5.68 9.33 -4.36 9.66 -3 10 C-2.86722656 9.36191406 -2.73445313 8.72382812 -2.59765625 8.06640625 C-2.42105469 7.24011719 -2.24445313 6.41382813 -2.0625 5.5625 C-1.88847656 4.73878906 -1.71445313 3.91507813 -1.53515625 3.06640625 C-1 1 -1 1 0 0 Z " fill="#C0BABC" transform="translate(96,55)"/>
<path d="M0 0 C2.3125 0.125 2.3125 0.125 5 1 C7.73064418 5.0488862 8.34512904 8.16819341 8 13 C6.02 13.99 6.02 13.99 4 15 C3.87882812 14.33613281 3.75765625 13.67226563 3.6328125 12.98828125 C2.77452292 8.46575541 1.96028689 4.20061476 0 0 Z " fill="#E2E0E0" transform="translate(34,39)"/>
<path d="M0 0 C2.6875 0.875 2.6875 0.875 5 2 C3.72278474 6.99275057 1.82669043 9.57611908 -2 13 C-2.33 12.01 -2.66 11.02 -3 10 C-1.5625 7.3125 -1.5625 7.3125 0 5 C-0.66 5 -1.32 5 -2 5 C-2.33 5.66 -2.66 6.32 -3 7 C-3.1875 4.625 -3.1875 4.625 -3 2 C-2.01 1.34 -1.02 0.68 0 0 Z " fill="#D7D1D1" transform="translate(98,31)"/>
<path d="M0 0 C0.94875 0.04125 1.8975 0.0825 2.875 0.125 C1.885 0.785 0.895 1.445 -0.125 2.125 C-0.125 2.785 -0.125 3.445 -0.125 4.125 C-0.888125 4.82625 -1.65125 5.5275 -2.4375 6.25 C-5.73358189 9.77604109 -6.65780635 12.56897762 -8.125 17.125 C-9.125 14.125 -9.125 14.125 -8.625 11.6875 C-8.10183993 9.00630463 -8.35530394 7.69065353 -9.125 5.125 C-9.125 4.135 -9.125 3.145 -9.125 2.125 C-7.805 2.125 -6.485 2.125 -5.125 2.125 C-3.125 0.125 -3.125 0.125 0 0 Z " fill="#C7C7C7" transform="translate(118.125,12.875)"/>
<path d="M0 0 C-1.64178265 4.77609498 -4.26546702 8.79382904 -7 13 C-7.66 12.34 -8.32 11.68 -9 11 C-9.99 11.66 -10.98 12.32 -12 13 C-10.48665656 7.61922331 -5.99032955 0 0 0 Z " fill="#CFCCCD" transform="translate(20,43)"/>
<path d="M0 0 C0.66 0.33 1.32 0.66 2 1 C2.6875 4 2.6875 4 3 7 C2 8 2 8 -0.5625 8.0625 C-1.366875 8.041875 -2.17125 8.02125 -3 8 C-3 8.66 -3 9.32 -3 10 C-3.66 10 -4.32 10 -5 10 C-5 7.36 -5 4.72 -5 2 C-4.34 2 -3.68 2 -3 2 C-2.67 2.33 -2.34 2.66 -2 3 C-2 2.34 -2 1.68 -2 1 C-1.34 0.67 -0.68 0.34 0 0 Z " fill="#B2B2B2" transform="translate(49,93)"/>
<path d="M0 0 C0.75 2.75 0.75 2.75 1 6 C-0.9375 8.375 -0.9375 8.375 -3 10 C-3.33 8.35 -3.66 6.7 -4 5 C-4.66 5.99 -5.32 6.98 -6 8 C-6.6875 5.6875 -6.6875 5.6875 -7 3 C-4.87164172 -0.24854684 -4.06968429 0 0 0 Z " fill="#DBD7D8" transform="translate(88,36)"/>
<path d="M0 0 C0.99 0.33 1.98 0.66 3 1 C3.33 2.98 3.66 4.96 4 7 C-3.42857143 9.14285714 -3.42857143 9.14285714 -7 10 C-7.33 9.34 -7.66 8.68 -8 8 C-7.01 8 -6.02 8 -5 8 C-5 7.01 -5 6.02 -5 5 C-3.35 5.33 -1.7 5.66 0 6 C-0.185625 5.38125 -0.37125 4.7625 -0.5625 4.125 C-1 2 -1 2 0 0 Z " fill="#B4B4B4" transform="translate(87,80)"/>
<path d="M0 0 C0.33 1.65 0.66 3.3 1 5 C-2.37097383 6.49821059 -4.20442119 7 -8 7 C-8.33 5.68 -8.66 4.36 -9 3 C-3.375 0 -3.375 0 0 0 Z " fill="#B3B3B3" transform="translate(114,73)"/>
<path d="M0 0 C0.99 0 1.98 0 3 0 C2.91621094 0.61488281 2.83242188 1.22976562 2.74609375 1.86328125 C2.64425781 2.67152344 2.54242187 3.47976562 2.4375 4.3125 C2.33308594 5.11300781 2.22867187 5.91351563 2.12109375 6.73828125 C1.85244822 9.16817116 1.85244822 9.16817116 3 12 C4.98 12 6.96 12 9 12 C7 14 7 14 4.5625 14.3125 C2 14 2 14 0.35546875 12.765625 C-1.37629811 10.50983646 -1.3426756 9.25020455 -1.25 6.4375 C-1.23453125 5.65246094 -1.2190625 4.86742187 -1.203125 4.05859375 C-1 2 -1 2 0 0 Z " fill="#DBDADC" transform="translate(22,51)"/>
<path d="M0 0 C0.66 0 1.32 0 2 0 C1.67 1.65 1.34 3.3 1 5 C0.34 5 -0.32 5 -1 5 C-1.33 5.99 -1.66 6.98 -2 8 C-2.66 8 -3.32 8 -4 8 C-4.66 9.32 -5.32 10.64 -6 12 C-7.32 11.34 -8.64 10.68 -10 10 C-7.76533179 6.58919063 -5.47679327 5.05041654 -2 3 C-1.34 2.01 -0.68 1.02 0 0 Z " fill="#CDCDCD" transform="translate(41,17)"/>
<path d="M0 0 C1.5625 1.1875 1.5625 1.1875 3 3 C3 6.56193904 2.2089573 7.77943396 -0.25 10.375 C-3 12 -3 12 -5.8125 11.75 C-6.534375 11.5025 -7.25625 11.255 -8 11 C-8.33 10.01 -8.66 9.02 -9 8 C-7 8 -7 8 -5.375 9.5 C-4.92125 9.995 -4.4675 10.49 -4 11 C-4.33 9.02 -4.66 7.04 -5 5 C-4.01 5.99 -3.02 6.98 -2 8 C-1.34 5.36 -0.68 2.72 0 0 Z " fill="#BCBDC0" transform="translate(51,60)"/>
<path d="M0 0 C0.99 0 1.98 0 3 0 C1.63330748 3.98618652 -0.05111785 6.96438602 -3 10 C-4.32 10 -5.64 10 -7 10 C-5.32127275 6.03209924 -2.91722926 3.13068506 0 0 Z " fill="#BABABA" transform="translate(106,82)"/>
<path d="M0 0 C1.32 0 2.64 0 4 0 C3.34 3.96 2.68 7.92 2 12 C1.34 12 0.68 12 0 12 C-1.1898306 9.6203388 -1.13349966 8.08514265 -1.125 5.4375 C-1.12886719 4.22900391 -1.12886719 4.22900391 -1.1328125 2.99609375 C-1 1 -1 1 0 0 Z " fill="#F6F5F6" transform="translate(98,55)"/>
<path d="M0 0 C0.66 0.33 1.32 0.66 2 1 C3.28571429 7.42857143 3.28571429 7.42857143 2 10 C2.66 10 3.32 10 4 10 C4 13.3 4 16.6 4 20 C3.01 19.67 2.02 19.34 1 19 C1 15.37 1 11.74 1 8 C0.34 8 -0.32 8 -1 8 C-1 7.34 -1 6.68 -1 6 C-0.34 6 0.32 6 1 6 C0.67 4.02 0.34 2.04 0 0 Z " fill="#979798" transform="translate(111,52)"/>
<path d="M0 0 C3.4375 0.8125 3.4375 0.8125 7 2 C7.33 2.99 7.66 3.98 8 5 C5.29120665 6.35439668 2.99066732 6.06501451 0 6 C-1.125 2.25 -1.125 2.25 0 0 Z " fill="#D7D7D9" transform="translate(82,67)"/>
<path d="M0 0 C0.58007812 0.2165625 1.16015625 0.433125 1.7578125 0.65625 C5.45730797 1.97488205 8.41205885 3 12.375 3 C15 3 15 3 16.875 4.5 C17.24625 4.995 17.6175 5.49 18 6 C11.93261154 6.39569925 6.65596006 5.25411205 1 3 C0.34 2.34 -0.32 1.68 -1 1 C-0.67 0.67 -0.34 0.34 0 0 Z " fill="#929292" transform="translate(48,102)"/>
<path d="M0 0 C1.98 0.495 1.98 0.495 4 1 C3.67 4.3 3.34 7.6 3 11 C2.01 10.67 1.02 10.34 0 10 C-0.74926071 6.33694766 -1.2380014 3.57644848 0 0 Z " fill="#F6F5F6" transform="translate(91,55)"/>
<path d="M0 0 C-0.75 7.625 -0.75 7.625 -3 11 C-3.66 11 -4.32 11 -5 11 C-5.49095023 4.61764706 -5.49095023 4.61764706 -3.0625 1.5625 C-1 0 -1 0 0 0 Z " fill="#E3DFE0" transform="translate(12,53)"/>
<path d="M0 0 C0.66 0.66 1.32 1.32 2 2 C1.625 5.625 1.625 5.625 1 9 C-0.32 8.67 -1.64 8.34 -3 8 C-3 7.34 -3 6.68 -3 6 C-3.63474075 4.65117592 -4.29848848 3.3153341 -5 2 C-3.35 1.34 -1.7 0.68 0 0 Z " fill="#989898" transform="translate(41,93)"/>
<path d="M0 0 C0.33 0 0.66 0 1 0 C1 3.96 1 7.92 1 12 C-2.465 13.485 -2.465 13.485 -6 15 C-6.33 13.02 -6.66 11.04 -7 9 C-6.34 9.66 -5.68 10.32 -5 11 C-2.39719432 10.67958603 -2.39719432 10.67958603 0 10 C0 6.7 0 3.4 0 0 Z " fill="#ACAAB1" transform="translate(68,33)"/>
<path d="M0 0 C7.42857143 -0.28571429 7.42857143 -0.28571429 11 2 C8.38496011 3.30751994 6.11037625 3.01077474 3.2421875 2.96875 C-0.22148467 3.01702418 -3.57295329 3.5104219 -7 4 C-4 2 -4 2 0 2 C0 1.34 0 0.68 0 0 Z " fill="#A3A3A3" transform="translate(65,5)"/>
<path d="M0 0 C2.31 0.66 4.62 1.32 7 2 C7 2.66 7 3.32 7 4 C6.2575 4.12375 5.515 4.2475 4.75 4.375 C2.19858515 4.95486701 0.2732427 5.73708739 -2 7 C-2.66 5.68 -3.32 4.36 -4 3 C-3.01 3 -2.02 3 -1 3 C-0.67 2.01 -0.34 1.02 0 0 Z " fill="#A4A4A4" transform="translate(98,90)"/>
<path d="M0 0 C0.66 0 1.32 0 2 0 C2.66 0.66 3.32 1.32 4 2 C4.66 2.33 5.32 2.66 6 3 C6 3.99 6 4.98 6 6 C4.02 6.33 2.04 6.66 0 7 C0 4.69 0 2.38 0 0 Z " fill="#C4C4C4" transform="translate(70,86)"/>
<path d="M0 0 C0.33 0.66 0.66 1.32 1 2 C2.98 1.67 4.96 1.34 7 1 C7.33 3.31 7.66 5.62 8 8 C7.34 7.34 6.68 6.68 6 6 C4.01643517 5.28591666 2.01684563 4.61382258 0 4 C0 2.68 0 1.36 0 0 Z " fill="#F9F8F9" transform="translate(82,63)"/>
<path d="M0 0 C-0.25 1.875 -0.25 1.875 -1 4 C-2.9375 5.3125 -2.9375 5.3125 -5 6 C-5.66 5.67 -6.32 5.34 -7 5 C-7 3.68 -7 2.36 -7 1 C-2.25 0 -2.25 0 0 0 Z " fill="#C7C6C8" transform="translate(73,69)"/>
<path d="M0 0 C2.475 0.495 2.475 0.495 5 1 C5 3.64 5 6.28 5 9 C4.34 9 3.68 9 3 9 C2.87625 8.195625 2.7525 7.39125 2.625 6.5625 C2.315625 5.2940625 2.315625 5.2940625 2 4 C1.34 3.67 0.68 3.34 0 3 C0 2.01 0 1.02 0 0 Z " fill="#E3DFDD" transform="translate(71,24)"/>
<path d="M0 0 C7.75 0.75 7.75 0.75 10 3 C9.67 3.33 9.34 3.66 9 4 C6.30917128 3.82364548 3.67148554 3.38164079 1 3 C0.67 2.01 0.34 1.02 0 0 Z " fill="#AEADAD" transform="translate(53,101)"/>
<path d="M0 0 C0.33 0.66 0.66 1.32 1 2 C1.99 2 2.98 2 4 2 C4.33 3.98 4.66 5.96 5 8 C3.68 8.99 2.36 9.98 1 11 C0.67 10.01 0.34 9.02 0 8 C1.4375 5.3125 1.4375 5.3125 3 3 C2.34 3 1.68 3 1 3 C0.67 3.66 0.34 4.32 0 5 C0 3.35 0 1.7 0 0 Z " fill="#C1BFC1" transform="translate(95,33)"/>
<path d="M0 0 C1.98 0.495 1.98 0.495 4 1 C5.03590199 6.05002222 5.10251672 10.87416389 5 16 C4.67 16 4.34 16 4 16 C3.34 11.71 2.68 7.42 2 3 C1.01 3 0.02 3 -1 3 C-0.67 2.01 -0.34 1.02 0 0 Z " fill="#B9BECA" transform="translate(55,47)"/>
<path d="M0 0 C1.485 0.99 1.485 0.99 3 2 C2.67 4.97 2.34 7.94 2 11 C1.67 10.01 1.34 9.02 1 8 C0.34 8 -0.32 8 -1 8 C-0.67 5.36 -0.34 2.72 0 0 Z " fill="#D9D3D4" transform="translate(59,30)"/>
<path d="M0 0 C0.99 0 1.98 0 3 0 C3.33 1.98 3.66 3.96 4 6 C2.02 6.99 2.02 6.99 0 8 C0.33 6.02 0.66 4.04 1 2 C0.34 1.67 -0.32 1.34 -1 1 C-0.67 0.67 -0.34 0.34 0 0 Z " fill="#F3F3F2" transform="translate(108,52)"/>
<path d="M0 0 C-1.24976756 3.65316671 -1.67098753 4.78065836 -5 7 C-5.6875 5.1875 -5.6875 5.1875 -6 3 C-4.04862098 0.26806937 -3.44686768 0 0 0 Z " fill="#DEDBDD" transform="translate(20,43)"/>
<path d="M0 0 C0.33 1.32 0.66 2.64 1 4 C-0.98 4.99 -0.98 4.99 -3 6 C-3.33 4.68 -3.66 3.36 -4 2 C-2.68 1.34 -1.36 0.68 0 0 Z " fill="#D5D5D5" transform="translate(95,94)"/>
<path d="M0 0 C0.66 0.33 1.32 0.66 2 1 C2.6328125 3.06640625 2.6328125 3.06640625 3.125 5.5625 C3.29257813 6.38878906 3.46015625 7.21507812 3.6328125 8.06640625 C3.75398438 8.70449219 3.87515625 9.34257813 4 10 C1.4375 7.8125 1.4375 7.8125 -1 5 C-0.8125 2.1875 -0.8125 2.1875 0 0 Z " fill="#B9B9B9" transform="translate(104,31)"/>
<path d="M0 0 C0.66 0 1.32 0 2 0 C2.66 1.65 3.32 3.3 4 5 C3.34 5 2.68 5 2 5 C2 5.99 2 6.98 2 8 C1.34 8 0.68 8 0 8 C0 5.36 0 2.72 0 0 Z " fill="#C2C2C2" transform="translate(44,95)"/>
<path d="M0 0 C1.9375 0.375 1.9375 0.375 4 1 C4.33 1.66 4.66 2.32 5 3 C2.64561267 4.42944945 1.51967567 5.08661261 -1.25 4.625 C-1.8275 4.41875 -2.405 4.2125 -3 4 C-2.01 3.67 -1.02 3.34 0 3 C0 2.01 0 1.02 0 0 Z " fill="#C4C4C4" transform="translate(82,85)"/>
<path d="M0 0 C2.97 0.495 2.97 0.495 6 1 C5.67 1.99 5.34 2.98 5 4 C3.35 3.67 1.7 3.34 0 3 C0 2.01 0 1.02 0 0 Z " fill="#DEDCDF" transform="translate(55,74)"/>
<path d="M0 0 C0.33 0 0.66 0 1 0 C1.33 2.97 1.66 5.94 2 9 C1.34 9 0.68 9 0 9 C-0.33 9.66 -0.66 10.32 -1 11 C-1.0270043 9.54176788 -1.04639787 8.08339325 -1.0625 6.625 C-1.07410156 5.81289063 -1.08570312 5.00078125 -1.09765625 4.1640625 C-1 2 -1 2 0 0 Z " fill="#EDECEE" transform="translate(94,35)"/>
<path d="M0 0 C0.33 0 0.66 0 1 0 C1 2.64 1 5.28 1 8 C0.34 8 -0.32 8 -1 8 C-2.0625 6.1875 -2.0625 6.1875 -3 4 C-2.67 3.01 -2.34 2.02 -2 1 C-1.67 1.33 -1.34 1.66 -1 2 C-0.67 1.34 -0.34 0.68 0 0 Z " fill="#A8A8A8" transform="translate(66,89)"/>
<path d="M0 0 C0.99 0.33 1.98 0.66 3 1 C3.6875 3.0625 3.6875 3.0625 4 5 C2.68 5.33 1.36 5.66 0 6 C-0.38218767 4.34385343 -0.71395102 2.67542976 -1 1 C-0.67 0.67 -0.34 0.34 0 0 Z M0 2 C0 2.66 0 3.32 0 4 C0.66 4 1.32 4 2 4 C2 3.34 2 2.68 2 2 C1.34 2 0.68 2 0 2 Z " fill="#C9C9C9" transform="translate(99,77)"/>
<path d="M0 0 C0.75 1.6875 0.75 1.6875 1 4 C-0.9375 6.75 -0.9375 6.75 -3 9 C-3.33 7.68 -3.66 6.36 -4 5 C-3.34 5 -2.68 5 -2 5 C-1.34 3.35 -0.68 1.7 0 0 Z " fill="#C4BFC2" transform="translate(103,44)"/>
<path d="M0 0 C0.75 1.625 0.75 1.625 1 4 C-0.9375 7.25 -0.9375 7.25 -3 10 C-4 7 -4 7 -3.22265625 5.17578125 C-2.1484375 3.45052083 -1.07421875 1.72526042 0 0 Z " fill="#B0B0B0" transform="translate(118,25)"/>
<path d="M0 0 C1.32 0.33 2.64 0.66 4 1 C4 1.99 4 2.98 4 4 C2.02 4 0.04 4 -2 4 C-1.34 2.68 -0.68 1.36 0 0 Z " fill="#DADADA" transform="translate(78,101)"/>
<path d="M0 0 C0.66 0 1.32 0 2 0 C2.433125 0.9590625 2.433125 0.9590625 2.875 1.9375 C3.82823451 4.15206079 3.82823451 4.15206079 6 5 C5.67 5.66 5.34 6.32 5 7 C3.68 6.67 2.36 6.34 1 6 C0.67 4.02 0.34 2.04 0 0 Z " fill="#BFBFBF" transform="translate(53,92)"/>
<path d="M0 0 C0.33 0.99 0.66 1.98 1 3 C-2.75 5 -2.75 5 -5 5 C-4.1875 3.0625 -4.1875 3.0625 -3 1 C-2.01 0.67 -1.02 0.34 0 0 Z " fill="#D8D8D8" transform="translate(104,87)"/>
<path d="M0 0 C0.66 0 1.32 0 2 0 C1.67 2.31 1.34 4.62 1 7 C0.01 6.67 -0.98 6.34 -2 6 C-1.34 4.02 -0.68 2.04 0 0 Z " fill="#C8C4C8" transform="translate(40,70)"/>
<path d="M0 0 C0.99 0 1.98 0 3 0 C1.25 5.75 1.25 5.75 -1 8 C-1.125 2.25 -1.125 2.25 0 0 Z " fill="#D0CFD1" transform="translate(22,51)"/>
<path d="M0 0 C0.33 0 0.66 0 1 0 C0.67 2.31 0.34 4.62 0 7 C-0.66 7 -1.32 7 -2 7 C-2.125 4.625 -2.125 4.625 -2 2 C-1.34 1.34 -0.68 0.68 0 0 Z " fill="#FBFBFB" transform="translate(9,57)"/>
<path d="M0 0 C0.99 0.33 1.98 0.66 3 1 C3 2.32 3 3.64 3 5 C1.02 5.99 1.02 5.99 -1 7 C-0.67 4.69 -0.34 2.38 0 0 Z " fill="#F3F1F0" transform="translate(39,47)"/>
<path d="M0 0 C0.33 0.99 0.66 1.98 1 3 C0.01 3.66 -0.98 4.32 -2 5 C-1.34 3.35 -0.68 1.7 0 0 Z " fill="#696969" transform="translate(108,86)"/>
<path d="M0 0 C0.66 0 1.32 0 2 0 C2 0.66 2 1.32 2 2 C1.01 2.33 0.02 2.66 -1 3 C-0.67 2.01 -0.34 1.02 0 0 Z " fill="#888888" transform="translate(118,72)"/>
<path d="M0 0 C0.66 0.33 1.32 0.66 2 1 C1.67 1.66 1.34 2.32 1 3 C0.34 2.67 -0.32 2.34 -1 2 C-0.67 1.34 -0.34 0.68 0 0 Z " fill="#434343" transform="translate(101,94)"/>
<path d="" fill="#6E6E6E" transform="translate(0,0)"/>
</svg>
